22600 0 2 4           
30 Autodesk Translation Framework 20 ASM 226.2.0.65535 NT 24 Mon Jun 15 15:06:31 2020 
1 9.999999999999999547e-07 1.000000000000000036e-10 
asmheader $-1 -1 @13 226.2.0.65535 #
body $2 -1 $-1 $3 $-1 $4 #
rgb_color-st-attrib $-1 -1 $5 $-1 $1 0.9647058823529411908 0.9647058823529411908 0.9529411764705881804 1 #
lump $-1 -1 $-1 $-1 $6 $1 #
transform $-1 -1 1 0 0 0 1 0 0 0 1 0 0 0 1 no_rotate no_reflect no_shear #
ATTRIB_CUSTOM-attrib $-1 -1 $-1 $2 $1 @20 Timestamp_attrib_def 1 1591693671716065 #
shell $-1 -1 $-1 $-1 $-1 $7 $-1 $3 #
face $8 -1 $-1 $9 $10 $6 $-1 $11 forward single #
DXID-attrib $-1 -1 $-1 $-1 $7 @10 ASM ENTITY @1 0 #
face $12 -1 $-1 $13 $14 $6 $-1 $15 forward single #
loop $-1 -1 $-1 $-1 $16 $7 #
cone-surface $-1 -1 $-1 -37.50000000000002132 15 4.150580822120531811e-15 0 1 0 4.440892098500626162e-15 0 -3.250000014901161194 1 I I 0 -1 3.250000014901161194 forward I I I I #
DXID-attrib $-1 -1 $-1 $-1 $9 @10 ASM ENTITY @1 1 #
face $17 -1 $-1 $18 $19 $6 $-1 $20 forward single #
loop $-1 -1 $-1 $-1 $21 $9 #
cone-surface $-1 -1 $-1 -2.151057110211241113e-14 15 -37.50000000000001421 0 1 0 3.250000014901161638 0 4.440892098500625373e-15 1 I I 0 -1 3.250000014901161638 forward I I I I #
coedge $-1 -1 $-1 $22 $23 $24 $25 reversed $10 0 $-1 #
DXID-attrib $-1 -1 $-1 $-1 $13 @10 ASM ENTITY @1 2 #
face $26 -1 $-1 $27 $28 $6 $-1 $29 forward single #
loop $-1 -1 $-1 $-1 $30 $13 #
cone-surface $-1 -1 $-1 -1.290634266126744794e-14 15 37.50000000000001421 0 1 0 -3.250000014901161638 0 -4.440892098500625373e-15 1 I I 0 -1 3.250000014901161638 forward I I I I #
coedge $-1 -1 $-1 $31 $32 $33 $34 reversed $14 0 $-1 #
coedge $-1 -1 $-1 $35 $16 $36 $37 forward $10 0 $-1 #
coedge $-1 -1 $-1 $16 $35 $38 $39 reversed $10 0 $-1 #
coedge $-1 -1 $-1 $40 $40 $16 $25 forward $41 0 $-1 #
edge $-1 -1 $-1 $42 2.263956234371650389 $43 4.019229067288269341 $24 $44 forward @7 unknown #
DXID-attrib $-1 -1 $-1 $-1 $18 @10 ASM ENTITY @1 3 #
face $45 -1 $-1 $46 $47 $6 $-1 $48 forward single #
loop $-1 -1 $-1 $-1 $49 $18 #
cone-surface $-1 -1 $-1 37.5 15 -1.387778780781445676e-16 0 1 0 0 0 3.250000014901161194 1 I I 0 -1 3.250000014901161194 forward I I I I #
coedge $-1 -1 $-1 $50 $51 $52 $53 reversed $19 0 $-1 #
coedge $-1 -1 $-1 $54 $21 $55 $56 forward $14 0 $-1 #
coedge $-1 -1 $-1 $21 $54 $57 $58 reversed $14 0 $-1 #
coedge $-1 -1 $-1 $59 $59 $21 $34 forward $60 0 $-1 #
edge $-1 -1 $-1 $61 0.6931599075767487239 $62 2.448432740493370119 $33 $63 forward @7 unknown #
coedge $-1 -1 $-1 $23 $22 $64 $65 reversed $10 0 $-1 #
coedge $-1 -1 $-1 $66 $67 $22 $37 reversed $68 0 $-1 #
edge $-1 -1 $-1 $42 0.4399999999999999467 $69 0.6100000000000003197 $22 $70 forward @7 unknown #
coedge $-1 -1 $-1 $71 $72 $23 $39 forward $73 0 $-1 #
edge $-1 -1 $-1 $43 0.4399999999999999467 $74 0.6100000000000003197 $38 $75 forward @7 unknown #
coedge $-1 -1 $-1 $24 $24 $76 $77 forward $41 0 $-1 #
loop $-1 -1 $-1 $78 $40 $79 #
vertex $-1 -1 $-1 $25 0 $80 #
vertex $-1 -1 $-1 $77 0 $81 #
ellipse-curve $-1 -1 $-1 -37.5 19.39999999999999858 -4.592425496802575156e-15 0 1 0 3.250000000000001776 0 0 1 I I #
DXID-attrib $-1 -1 $-1 $-1 $27 @10 ASM ENTITY @1 4 #
face $82 -1 $-1 $83 $84 $6 $-1 $85 forward single #
loop $-1 -1 $-1 $86 $87 $27 #
plane-surface $-1 -1 $-1 0 21.10000000000000142 0 0 1 0 10 0 0 forward_v I I I I #
coedge $-1 -1 $-1 $88 $89 $90 $91 reversed $28 0 $-1 #
coedge $-1 -1 $-1 $92 $30 $93 $94 forward $19 0 $-1 #
coedge $-1 -1 $-1 $30 $92 $95 $96 reversed $19 0 $-1 #
coedge $-1 -1 $-1 $97 $97 $30 $53 forward $98 0 $-1 #
edge $-1 -1 $-1 $99 3.834752561166547391 $100 5.590025394083171228 $52 $101 forward @7 unknown #
coedge $-1 -1 $-1 $32 $31 $87 $102 reversed $14 0 $-1 #
coedge $-1 -1 $-1 $103 $104 $31 $56 reversed $105 0 $-1 #
edge $-1 -1 $-1 $61 0.4399999999999999467 $106 0.6100000000000003197 $31 $107 forward @7 unknown #
coedge $-1 -1 $-1 $108 $109 $32 $58 forward $110 0 $-1 #
edge $-1 -1 $-1 $62 0.4399999999999999467 $111 0.6100000000000003197 $32 $112 forward @7 unknown #
coedge $-1 -1 $-1 $33 $33 $113 $114 forward $60 0 $-1 #
loop $-1 -1 $-1 $-1 $59 $115 #
vertex $-1 -1 $-1 $34 0 $116 #
vertex $-1 -1 $-1 $114 0 $117 #
ellipse-curve $-1 -1 $-1 -8.326672684688674053e-15 19.39999999999999858 -37.50000000000000711 0 1 0 3.25 0 0 1 I I #
coedge $-1 -1 $-1 $118 $119 $35 $65 forward $47 0 $-1 #
edge $-1 -1 $-1 $74 -2.448432746013043282 $69 -0.6931599075767482798 $35 $120 forward @7 unknown #
coedge $-1 -1 $-1 $121 $36 $122 $123 forward $68 0 $-1 #
coedge $-1 -1 $-1 $36 $124 $118 $125 reversed $68 0 $-1 #
loop $-1 -1 $-1 $-1 $66 $126 #
vertex $-1 -1 $-1 $37 1 $127 #
straight-curve $-1 -1 $-1 -39.57665596572952182 15 -2.500000000000004885 0 10 0 I I #
coedge $-1 -1 $-1 $128 $38 $119 $129 reversed $73 0 $-1 #
coedge $-1 -1 $-1 $38 $130 $131 $132 reversed $73 0 $-1 #
loop $-1 -1 $-1 $-1 $72 $133 #
vertex $-1 -1 $-1 $39 1 $134 #
straight-curve $-1 -1 $-1 -39.57665596572952182 15 2.499999999999994671 0 10 0 I I #
coedge $-1 -1 $-1 $131 $122 $40 $77 reversed $84 0 $-1 #
edge $-1 -1 $-1 $43 -2.263956239891316891 $42 2.263956234371650389 $76 $44 forward @7 unknown #
loop $-1 -1 $-1 $-1 $135 $79 #
face $136 -1 $-1 $115 $41 $6 $-1 $137 forward single #
point $-1 -1 $-1 -39.57665596572952182 19.39999999999999858 -2.500000000000004885 #
point $-1 -1 $-1 -39.57665598905010995 19.39999999999999858 2.499999999999994671 #
DXID-attrib $-1 -1 $-1 $-1 $46 @10 ASM ENTITY @1 5 #
face $138 -1 $-1 $79 $139 $6 $-1 $140 forward single #
loop $-1 -1 $-1 $-1 $131 $46 #
cone-surface $-1 -1 $-1 -37.5 0 -4.592425496802575156e-15 0 1 0 3.250000000000001776 0 0 1 I I 0 1 3.250000000000001776 forward I I I I #
loop $-1 -1 $-1 $-1 $141 $27 #
coedge $-1 -1 $-1 $142 $143 $54 $102 forward $47 0 $-1 #
coedge $-1 -1 $-1 $144 $49 $145 $146 forward $28 0 $-1 #
coedge $-1 -1 $-1 $49 $144 $147 $148 reversed $28 0 $-1 #
coedge $-1 -1 $-1 $149 $149 $49 $91 forward $150 0 $-1 #
edge $-1 -1 $-1 $151 -0.8776364192181416168 $152 0.8776364136984851072 $90 $153 forward @7 unknown #
coedge $-1 -1 $-1 $51 $50 $154 $155 reversed $19 0 $-1 #
coedge $-1 -1 $-1 $156 $157 $50 $94 reversed $158 0 $-1 #
edge $-1 -1 $-1 $99 0.4399999999999999467 $159 0.6100000000000003197 $50 $160 forward @7 unknown #
coedge $-1 -1 $-1 $161 $162 $51 $96 forward $163 0 $-1 #
edge $-1 -1 $-1 $100 0.4399999999999999467 $164 0.6100000000000003197 $95 $165 forward @7 unknown #
coedge $-1 -1 $-1 $52 $52 $166 $167 forward $98 0 $-1 #
loop $-1 -1 $-1 $-1 $97 $168 #
vertex $-1 -1 $-1 $53 0 $169 #
vertex $-1 -1 $-1 $167 0 $170 #
ellipse-curve $-1 -1 $-1 -8.326672684688674053e-15 19.39999999999999858 37.5 0 1 0 3.25 0 0 1 I I #
edge $-1 -1 $-1 $111 -2.448432746013034844 $106 -0.6931599075767453932 $54 $171 forward @7 unknown #
coedge $-1 -1 $-1 $172 $55 $173 $174 forward $105 0 $-1 #
coedge $-1 -1 $-1 $55 $175 $142 $176 reversed $105 0 $-1 #
loop $-1 -1 $-1 $-1 $103 $177 #
vertex $-1 -1 $-1 $56 1 $178 #
straight-curve $-1 -1 $-1 2.50000000000000222 15 -39.57665596572951472 0 10 0 I I #
coedge $-1 -1 $-1 $179 $57 $143 $180 reversed $110 0 $-1 #
coedge $-1 -1 $-1 $57 $181 $182 $183 reversed $110 0 $-1 #
loop $-1 -1 $-1 $-1 $109 $184 #
vertex $-1 -1 $-1 $58 1 $185 #
straight-curve $-1 -1 $-1 -2.499999999999997335 15 -39.57665596572954314 0 10 0 I I #
coedge $-1 -1 $-1 $182 $173 $59 $114 reversed $186 0 $-1 #
edge $-1 -1 $-1 $62 -3.834752566686216113 $61 0.6931599075767487239 $113 $63 forward @7 unknown #
face $187 -1 $-1 $168 $188 $6 $-1 $189 forward single #
point $-1 -1 $-1 2.50000000000000222 19.39999999999999858 -39.57665596572951472 #
point $-1 -1 $-1 -2.499999999999997335 19.39999999999999858 -39.57665598905012416 #
coedge $-1 -1 $-1 $190 $64 $67 $125 forward $47 0 $-1 #
coedge $-1 -1 $-1 $64 $191 $71 $129 forward $47 0 $-1 #
ellipse-curve $-1 -1 $-1 -37.50000000000002132 21.10000000000000142 4.150580822120531811e-15 -0 -1 -0 4.440892098500626162e-15 0 -3.250000014901161194 1 I I #
coedge $-1 -1 $-1 $124 $66 $192 $193 reversed $68 0 $-1 #
coedge $-1 -1 $-1 $76 $194 $66 $123 reversed $84 0 $-1 #
edge $-1 -1 $-1 $42 -1.939999999999999947 $195 -0.2000000000000000111 $66 $196 forward @7 unknown #
coedge $-1 -1 $-1 $67 $121 $197 $198 forward $68 0 $-1 #
edge $-1 -1 $-1 $69 0.207665596572951916 $199 0.2922765862815470683 $67 $200 forward @7 unknown #
face $201 -1 $-1 $202 $68 $6 $-1 $203 forward single #
point $-1 -1 $-1 -39.57665596572952182 21.10000000000000142 -2.500000000000004441 #
coedge $-1 -1 $-1 $130 $71 $204 $205 reversed $73 0 $-1 #
edge $-1 -1 $-1 $206 -0.2922765862815470683 $74 -0.2076655965729523601 $71 $207 forward @7 unknown #
coedge $-1 -1 $-1 $72 $128 $208 $209 reversed $73 0 $-1 #
coedge $-1 -1 $-1 $194 $76 $72 $132 forward $84 0 $-1 #
edge $-1 -1 $-1 $43 -1.939999999999999947 $210 -0.1999999999999999556 $131 $211 forward @7 unknown #
face $212 -1 $-1 $213 $73 $6 $-1 $214 forward single #
point $-1 -1 $-1 -39.57665596572952182 21.10000000000000142 2.499999999999991118 #
coedge $-1 -1 $-1 $135 $135 $215 $216 forward $78 0 $-1 #
DXID-attrib $-1 -1 $-1 $-1 $79 @10 ASM ENTITY @1 7 #
plane-surface $-1 -1 $-1 -1.332267629550187849e-14 19.39999999999999858 0 0 1 0 0 0 10 forward_v I I I I #
DXID-attrib $-1 -1 $-1 $-1 $83 @10 ASM ENTITY @1 6 #
loop $-1 -1 $-1 $150 $217 $83 #
plane-surface $-1 -1 $-1 -1.332267629550187849e-14 19.39999999999999858 0 0 1 0 0 0 10 forward_v I I I I #
coedge $-1 -1 $-1 $141 $141 $218 $219 forward $86 0 $-1 #
coedge $-1 -1 $-1 $220 $87 $104 $176 forward $47 0 $-1 #
coedge $-1 -1 $-1 $87 $190 $108 $180 forward $47 0 $-1 #
coedge $-1 -1 $-1 $89 $88 $221 $222 reversed $28 0 $-1 #
coedge $-1 -1 $-1 $223 $224 $88 $146 reversed $225 0 $-1 #
edge $-1 -1 $-1 $151 0.4399999999999999467 $226 0.6100000000000003197 $88 $227 forward @7 unknown #
coedge $-1 -1 $-1 $228 $229 $89 $148 forward $230 0 $-1 #
edge $-1 -1 $-1 $152 0.4399999999999999467 $231 0.6100000000000003197 $147 $232 forward @7 unknown #
coedge $-1 -1 $-1 $90 $90 $233 $234 forward $150 0 $-1 #
loop $-1 -1 $-1 $-1 $149 $83 #
vertex $-1 -1 $-1 $91 0 $235 #
vertex $-1 -1 $-1 $234 0 $236 #
ellipse-curve $-1 -1 $-1 37.5 19.39999999999999858 0 0 1 0 3.250000000000001776 0 0 1 I I #
coedge $-1 -1 $-1 $237 $238 $92 $155 forward $47 0 $-1 #
edge $-1 -1 $-1 $164 -2.448432746013046835 $159 -0.6931599075767522766 $92 $239 forward @7 unknown #
coedge $-1 -1 $-1 $240 $93 $241 $242 forward $158 0 $-1 #
coedge $-1 -1 $-1 $93 $243 $237 $244 reversed $158 0 $-1 #
loop $-1 -1 $-1 $-1 $156 $245 #
vertex $-1 -1 $-1 $94 1 $246 #
straight-curve $-1 -1 $-1 -2.500000000000007105 15 39.57665596572952182 0 10 0 I I #
coedge $-1 -1 $-1 $247 $95 $238 $248 reversed $163 0 $-1 #
coedge $-1 -1 $-1 $95 $249 $250 $251 reversed $163 0 $-1 #
loop $-1 -1 $-1 $-1 $162 $252 #
vertex $-1 -1 $-1 $96 1 $253 #
straight-curve $-1 -1 $-1 2.499999999999992895 15 39.57665596572951472 0 10 0 I I #
coedge $-1 -1 $-1 $250 $241 $97 $167 reversed $254 0 $-1 #
edge $-1 -1 $-1 $100 -0.6931599130964146704 $99 3.834752561166547391 $166 $101 forward @7 unknown #
face $255 -1 $-1 $256 $257 $6 $-1 $258 forward single #
point $-1 -1 $-1 -2.500000000000007105 19.39999999999999858 39.57665596572952182 #
point $-1 -1 $-1 2.49999999999999245 19.39999999999999858 39.57665598905008864 #
ellipse-curve $-1 -1 $-1 -2.151057110211241113e-14 21.10000000000000142 -37.50000000000001421 -0 -1 -0 3.250000014901161638 0 4.440892098500625373e-15 1 I I #
coedge $-1 -1 $-1 $175 $103 $259 $260 reversed $105 0 $-1 #
coedge $-1 -1 $-1 $113 $261 $103 $174 reversed $186 0 $-1 #
edge $-1 -1 $-1 $61 -1.939999999999999947 $262 -0.2000000000000000111 $103 $263 forward @7 unknown #
coedge $-1 -1 $-1 $104 $172 $264 $265 forward $105 0 $-1 #
edge $-1 -1 $-1 $106 0.2076655965729514719 $266 0.2922765862815470683 $104 $267 forward @7 unknown #
face $268 -1 $-1 $245 $105 $6 $-1 $269 forward single #
point $-1 -1 $-1 2.50000000000000222 21.10000000000000142 -39.57665596572951472 #
coedge $-1 -1 $-1 $181 $108 $270 $271 reversed $110 0 $-1 #
edge $-1 -1 $-1 $272 -0.2922765862815470683 $111 -0.2076655965729541364 $108 $273 forward @7 unknown #
coedge $-1 -1 $-1 $109 $179 $274 $275 reversed $110 0 $-1 #
coedge $-1 -1 $-1 $261 $113 $109 $183 forward $186 0 $-1 #
edge $-1 -1 $-1 $62 -1.939999999999999947 $276 -0.1999999999999999556 $182 $277 forward @7 unknown #
face $278 -1 $-1 $279 $110 $6 $-1 $280 forward single #
point $-1 -1 $-1 -2.499999999999997335 21.10000000000000142 -39.57665596572954314 #
loop $-1 -1 $-1 $-1 $182 $256 #
DXID-attrib $-1 -1 $-1 $-1 $115 @10 ASM ENTITY @1 8 #
loop $-1 -1 $-1 $60 $281 $115 #
plane-surface $-1 -1 $-1 -1.332267629550187849e-14 19.39999999999999858 0 0 1 0 0 0 10 forward_v I I I I #
coedge $-1 -1 $-1 $143 $118 $282 $283 forward $47 0 $-1 #
coedge $-1 -1 $-1 $119 $237 $284 $285 forward $47 0 $-1 #
coedge $-1 -1 $-1 $286 $287 $121 $193 forward $288 0 $-1 #
edge $-1 -1 $-1 $289 -2.167276586281547068 $195 -2.082665596572951916 $192 $290 forward @7 unknown #
coedge $-1 -1 $-1 $122 $131 $286 $291 reversed $84 0 $-1 #
vertex $-1 -1 $-1 $291 0 $292 #
straight-curve $-1 -1 $-1 -39.57665596572952182 0 -2.500000000000004885 -0 -10 -0 I I #
coedge $-1 -1 $-1 $293 $282 $124 $198 reversed $294 0 $-1 #
edge $-1 -1 $-1 $289 0.2000000000000000111 $199 2.11000000000000032 $124 $295 forward @7 unknown #
vertex $-1 -1 $-1 $198 1 $296 #
straight-curve $-1 -1 $-1 -37.5 21.10000000000000142 -2.500000000000004885 -10 0 0 I I #
DXID-attrib $-1 -1 $-1 $-1 $126 @10 ASM ENTITY @2 23 #
face $297 -1 $-1 $298 $288 $6 $-1 $299 forward single #
plane-surface $-1 -1 $-1 -37.5 0 -2.500000000000004885 0 0 -1 -10 0 0 forward_v I I I I #
coedge $-1 -1 $-1 $284 $300 $128 $205 forward $301 0 $-1 #
edge $-1 -1 $-1 $302 0.2000000000000000111 $206 2.11000000000000032 $204 $303 forward @7 unknown #
vertex $-1 -1 $-1 $205 1 $304 #
straight-curve $-1 -1 $-1 -37.5 21.10000000000000142 2.499999999999995559 10 0 2.37906406643909381e-15 I I #
coedge $-1 -1 $-1 $305 $286 $130 $209 forward $288 0 $-1 #
edge $-1 -1 $-1 $210 1.936527303432178826 $302 2.021138293140773534 $208 $306 forward @7 unknown #
vertex $-1 -1 $-1 $209 0 $307 #
straight-curve $-1 -1 $-1 -39.57665596572952182 0 2.499999999999994671 -0 -10 -0 I I #
DXID-attrib $-1 -1 $-1 $-1 $133 @10 ASM ENTITY @2 33 #
face $308 -1 $-1 $309 $301 $6 $-1 $310 forward single #
plane-surface $-1 -1 $-1 -40.42276586281546713 0 2.499999999999994671 -2.379064066439093712e-16 0 1 10 0 2.37906406643909381e-15 forward_v I I I I #
coedge $-1 -1 $-1 $215 $215 $135 $216 reversed $311 0 $-1 #
edge $-1 -1 $-1 $312 -3.141592653589793116 $312 3.141592653589793116 $215 $313 forward @7 unknown #
coedge $-1 -1 $-1 $217 $217 $314 $315 forward $139 0 $-1 #
coedge $-1 -1 $-1 $218 $218 $141 $219 reversed $316 0 $-1 #
edge $-1 -1 $-1 $317 -3.141592653589793116 $317 3.141592653589793116 $218 $318 forward @7 unknown #
coedge $-1 -1 $-1 $319 $142 $320 $321 forward $47 0 $-1 #
coedge $-1 -1 $-1 $322 $319 $144 $222 forward $47 0 $-1 #
edge $-1 -1 $-1 $231 -2.448432746013038397 $226 -0.6931599075767549412 $144 $323 forward @7 unknown #
coedge $-1 -1 $-1 $324 $145 $325 $326 forward $225 0 $-1 #
coedge $-1 -1 $-1 $145 $327 $322 $328 reversed $225 0 $-1 #
loop $-1 -1 $-1 $-1 $223 $329 #
vertex $-1 -1 $-1 $146 1 $330 #
straight-curve $-1 -1 $-1 39.57665596572952182 15 2.5 0 10 0 I I #
coedge $-1 -1 $-1 $331 $147 $319 $332 reversed $230 0 $-1 #
coedge $-1 -1 $-1 $147 $333 $334 $335 reversed $230 0 $-1 #
loop $-1 -1 $-1 $-1 $229 $336 #
vertex $-1 -1 $-1 $148 1 $337 #
straight-curve $-1 -1 $-1 39.57665596572952182 15 -2.5 0 10 0 I I #
coedge $-1 -1 $-1 $334 $325 $149 $234 reversed $338 0 $-1 #
edge $-1 -1 $-1 $152 -5.405548893481101125 $151 -0.8776364192181416168 $233 $153 forward @7 unknown #
point $-1 -1 $-1 39.57665596572952182 19.39999999999999858 2.5 #
point $-1 -1 $-1 39.57665598905007442 19.39999999999999858 -2.499999999999999556 #
coedge $-1 -1 $-1 $191 $154 $157 $244 forward $47 0 $-1 #
coedge $-1 -1 $-1 $154 $339 $161 $248 forward $47 0 $-1 #
ellipse-curve $-1 -1 $-1 -1.290634266126744794e-14 21.10000000000000142 37.50000000000001421 -0 -1 -0 -3.250000014901161638 0 -4.440892098500625373e-15 1 I I #
coedge $-1 -1 $-1 $243 $156 $340 $341 reversed $158 0 $-1 #
coedge $-1 -1 $-1 $166 $342 $156 $242 reversed $254 0 $-1 #
edge $-1 -1 $-1 $99 -1.939999999999999947 $343 -0.2000000000000000111 $156 $344 forward @7 unknown #
coedge $-1 -1 $-1 $157 $240 $345 $346 forward $158 0 $-1 #
edge $-1 -1 $-1 $159 0.2076655965729523601 $347 0.2922765862815475124 $157 $348 forward @7 unknown #
face $349 -1 $-1 $126 $158 $6 $-1 $350 forward single #
point $-1 -1 $-1 -2.500000000000007105 21.10000000000000142 39.57665596572952182 #
coedge $-1 -1 $-1 $249 $161 $351 $352 reversed $163 0 $-1 #
edge $-1 -1 $-1 $353 -0.2922765862815470683 $164 -0.2076655965729514719 $161 $354 forward @7 unknown #
coedge $-1 -1 $-1 $162 $247 $355 $356 reversed $163 0 $-1 #
coedge $-1 -1 $-1 $342 $166 $162 $251 forward $254 0 $-1 #
edge $-1 -1 $-1 $100 -1.939999999999999947 $357 -0.1999999999999999556 $250 $358 forward @7 unknown #
face $359 -1 $-1 $360 $163 $6 $-1 $361 forward single #
point $-1 -1 $-1 2.49999999999999245 21.10000000000000142 39.57665596572951472 #
loop $-1 -1 $-1 $-1 $241 $362 #
DXID-attrib $-1 -1 $-1 $-1 $168 @10 ASM ENTITY @1 9 #
face $363 -1 $-1 $362 $186 $6 $-1 $364 forward single #
loop $-1 -1 $-1 $98 $365 $168 #
plane-surface $-1 -1 $-1 -1.332267629550187849e-14 19.39999999999999858 0 0 1 0 0 0 10 forward_v I I I I #
coedge $-1 -1 $-1 $366 $367 $172 $260 forward $288 0 $-1 #
edge $-1 -1 $-1 $368 -2.167276586281547068 $262 -2.082665596572951472 $259 $369 forward @7 unknown #
coedge $-1 -1 $-1 $173 $182 $366 $370 reversed $186 0 $-1 #
vertex $-1 -1 $-1 $370 0 $371 #
straight-curve $-1 -1 $-1 2.50000000000000222 0 -39.57665596572951472 -0 -10 -0 I I #
coedge $-1 -1 $-1 $372 $320 $175 $265 reversed $373 0 $-1 #
edge $-1 -1 $-1 $368 0.2000000000000000111 $266 2.11000000000000032 $175 $374 forward @7 unknown #
vertex $-1 -1 $-1 $265 1 $375 #
straight-curve $-1 -1 $-1 2.50000000000000222 21.10000000000000142 -37.5 0 0 -10 I I #
DXID-attrib $-1 -1 $-1 $-1 $177 @10 ASM ENTITY @2 21 #
plane-surface $-1 -1 $-1 2.50000000000000222 0 -37.5 1 0 0 0 0 -10 forward_v I I I I #
coedge $-1 -1 $-1 $282 $293 $179 $271 forward $294 0 $-1 #
edge $-1 -1 $-1 $376 0.2000000000000000111 $272 2.11000000000000032 $270 $377 forward @7 unknown #
vertex $-1 -1 $-1 $271 1 $378 #
straight-curve $-1 -1 $-1 -2.49999999999999778 21.10000000000000142 -37.5 -7.930213554796979039e-16 0 10 I I #
coedge $-1 -1 $-1 $287 $366 $181 $275 forward $288 0 $-1 #
edge $-1 -1 $-1 $276 1.936527303432180602 $376 2.021138293140773534 $274 $379 forward @7 unknown #
vertex $-1 -1 $-1 $275 0 $380 #
straight-curve $-1 -1 $-1 -2.499999999999997335 0 -39.57665596572954314 -0 -10 -0 I I #
DXID-attrib $-1 -1 $-1 $-1 $184 @10 ASM ENTITY @2 31 #
face $381 -1 $-1 $133 $294 $6 $-1 $382 forward single #
plane-surface $-1 -1 $-1 -2.499999999999997335 0 -40.42276586281546713 -1 0 -7.930213554796979039e-17 -7.930213554796979039e-16 0 10 forward_v I I I I #
coedge $-1 -1 $-1 $281 $281 $383 $384 forward $188 0 $-1 #
coedge $-1 -1 $-1 $197 $270 $190 $283 reversed $294 0 $-1 #
edge $-1 -1 $-1 $199 -3.079824989564968529 $272 -1.632563990819720923 $282 $385 forward @7 unknown #
coedge $-1 -1 $-1 $345 $204 $191 $285 reversed $301 0 $-1 #
edge $-1 -1 $-1 $347 1.632563990819721145 $206 3.079824989564968973 $284 $386 forward @7 unknown #
coedge $-1 -1 $-1 $208 $192 $194 $291 forward $288 0 $-1 #
coedge $-1 -1 $-1 $192 $274 $293 $387 forward $288 0 $-1 #
loop $-1 -1 $-1 $388 $366 $202 #
vertex $-1 -1 $-1 $387 1 $389 #
straight-curve $-1 -1 $-1 -18.75 2 -2.500000000000004885 10 0 0 I I #
edge $-1 -1 $-1 $195 -2.263956234371650389 $210 2.263956234371651721 $286 $390 forward @7 unknown #
point $-1 -1 $-1 -39.57665596572952182 2 -2.500000000000004885 #
coedge $-1 -1 $-1 $270 $197 $287 $387 reversed $294 0 $-1 #
loop $-1 -1 $-1 $-1 $293 $279 #
straight-curve $-1 -1 $-1 -40.42276586281546713 0 -2.500000000000004885 0 10 0 I I #
point $-1 -1 $-1 -40.42276586281546713 21.10000000000000142 -2.500000000000004441 #
DXID-attrib $-1 -1 $-1 $-1 $202 @10 ASM ENTITY @2 24 #
face $391 -1 $-1 $336 $373 $6 $-1 $392 forward single #
plane-surface $-1 -1 $-1 0 2 0 0 1 0 10 0 0 forward_v I I I I #
coedge $-1 -1 $-1 $204 $345 $305 $393 reversed $301 0 $-1 #
loop $-1 -1 $-1 $-1 $300 $213 #
vertex $-1 -1 $-1 $209 1 $394 #
straight-curve $-1 -1 $-1 -40.42276586281546713 0 2.499999999999994671 0 10 0 I I #
point $-1 -1 $-1 -40.42276586281546713 21.10000000000000142 2.499999999999991118 #
coedge $-1 -1 $-1 $340 $208 $300 $393 forward $288 0 $-1 #
straight-curve $-1 -1 $-1 -20.21138293140773357 2 2.499999999999999556 -10 0 -2.37906406643909381e-15 I I #
point $-1 -1 $-1 -39.57665596572952182 2 2.499999999999994671 #
DXID-attrib $-1 -1 $-1 $-1 $213 @10 ASM ENTITY @2 34 #
face $395 -1 $-1 $396 $397 $6 $-1 $398 forward single #
cone-surface $-1 -1 $-1 0 0 0 0 1 0 40.5 0 0 1 I I 0 -1 40.5 forward I I I I #
loop $-1 -1 $-1 $399 $215 $400 #
vertex $-1 -1 $-1 $216 2 $401 #
ellipse-curve $-1 -1 $-1 -37.5 19.39999999999999858 -4.592425496802575156e-15 -0 -1 -0 -1.499999999999999112 0 -1.836970198721033139e-16 1 I I #
coedge $-1 -1 $-1 $314 $314 $217 $315 reversed $397 0 $-1 #
edge $-1 -1 $-1 $402 -3.141592653589793116 $402 3.141592653589793116 $314 $403 forward @7 unknown #
loop $-1 -1 $-1 $404 $218 $405 #
vertex $-1 -1 $-1 $219 2 $406 #
ellipse-curve $-1 -1 $-1 0 21.10000000000000142 0 0 1 0 41.49999999999999289 0 0 1 I I #
coedge $-1 -1 $-1 $221 $220 $228 $332 forward $47 0 $-1 #
coedge $-1 -1 $-1 $264 $407 $220 $321 reversed $373 0 $-1 #
edge $-1 -1 $-1 $266 -1.509028662770072193 $408 -0.06176766402482437163 $320 $409 forward @7 unknown #
coedge $-1 -1 $-1 $339 $221 $224 $328 forward $47 0 $-1 #
ellipse-curve $-1 -1 $-1 37.5 21.10000000000000142 -1.387778780781445676e-16 -0 -1 -0 0 0 3.250000014901161194 1 I I #
coedge $-1 -1 $-1 $327 $223 $410 $411 reversed $225 0 $-1 #
coedge $-1 -1 $-1 $233 $412 $223 $326 reversed $338 0 $-1 #
edge $-1 -1 $-1 $151 -1.939999999999999947 $413 -0.2000000000000000111 $223 $414 forward @7 unknown #
coedge $-1 -1 $-1 $224 $324 $415 $416 forward $225 0 $-1 #
edge $-1 -1 $-1 $226 0.2076655965729523601 $417 0.2922765862815470683 $224 $418 forward @7 unknown #
face $419 -1 $-1 $420 $225 $6 $-1 $421 forward single #
point $-1 -1 $-1 39.57665596572952893 21.10000000000000142 2.5 #
coedge $-1 -1 $-1 $333 $228 $407 $422 reversed $230 0 $-1 #
edge $-1 -1 $-1 $408 -0.2922765862815470683 $231 -0.2076655965729523601 $228 $423 forward @7 unknown #
coedge $-1 -1 $-1 $229 $331 $424 $425 reversed $230 0 $-1 #
coedge $-1 -1 $-1 $412 $233 $229 $335 forward $338 0 $-1 #
edge $-1 -1 $-1 $152 -1.939999999999999947 $426 -0.1999999999999999556 $334 $427 forward @7 unknown #
face $428 -1 $-1 $329 $230 $6 $-1 $429 forward single #
point $-1 -1 $-1 39.57665596572952893 21.10000000000000142 -2.5 #
loop $-1 -1 $-1 $-1 $325 $430 #
coedge $-1 -1 $-1 $238 $322 $431 $432 forward $47 0 $-1 #
coedge $-1 -1 $-1 $433 $305 $240 $341 forward $288 0 $-1 #
edge $-1 -1 $-1 $434 -2.167276586281547068 $343 -2.08266559657295236 $340 $435 forward @7 unknown #
coedge $-1 -1 $-1 $241 $250 $433 $436 reversed $254 0 $-1 #
vertex $-1 -1 $-1 $436 0 $437 #
straight-curve $-1 -1 $-1 -2.500000000000007105 0 39.57665596572952182 -0 -10 -0 I I #
coedge $-1 -1 $-1 $300 $284 $243 $346 reversed $301 0 $-1 #
edge $-1 -1 $-1 $434 0.2000000000000000111 $347 2.11000000000000032 $243 $438 forward @7 unknown #
vertex $-1 -1 $-1 $346 1 $439 #
straight-curve $-1 -1 $-1 -2.500000000000006661 21.10000000000000142 37.49999999999999289 -1.586042710959393836e-15 0 10 I I #
DXID-attrib $-1 -1 $-1 $-1 $245 @10 ASM ENTITY @2 22 #
plane-surface $-1 -1 $-1 -2.500000000000006661 0 37.49999999999999289 -1 0 -1.586042710959393836e-16 -1.586042710959393836e-15 0 10 forward_v I I I I #
coedge $-1 -1 $-1 $431 $440 $247 $352 forward $441 0 $-1 #
edge $-1 -1 $-1 $442 0.2000000000000000111 $353 2.11000000000000032 $247 $443 forward @7 unknown #
vertex $-1 -1 $-1 $352 1 $444 #
straight-curve $-1 -1 $-1 2.499999999999993339 21.10000000000000142 37.5 2.37906406643909381e-15 0 -10 I I #
coedge $-1 -1 $-1 $445 $433 $249 $356 forward $288 0 $-1 #
edge $-1 -1 $-1 $357 1.936527303432178382 $442 2.021138293140773534 $355 $446 forward @7 unknown #
vertex $-1 -1 $-1 $356 0 $447 #
straight-curve $-1 -1 $-1 2.499999999999992895 0 39.57665596572951472 -0 -10 -0 I I #
DXID-attrib $-1 -1 $-1 $-1 $252 @10 ASM ENTITY @2 29 #
face $448 -1 $-1 $184 $449 $6 $-1 $450 forward single #
plane-surface $-1 -1 $-1 2.49999999999999245 0 40.42276586281546713 1 0 2.379064066439093712e-16 2.37906406643909381e-15 0 -10 forward_v I I I I #
face $451 -1 $-1 $430 $254 $6 $-1 $452 forward single #
DXID-attrib $-1 -1 $-1 $-1 $256 @10 ASM ENTITY @2 10 #
cone-surface $-1 -1 $-1 -8.326672684688674053e-15 0 -37.50000000000000711 0 1 0 3.25 0 0 1 I I 0 1 3.25 forward I I I I #
coedge $-1 -1 $-1 $365 $365 $453 $454 forward $257 0 $-1 #
coedge $-1 -1 $-1 $274 $259 $261 $370 forward $288 0 $-1 #
coedge $-1 -1 $-1 $259 $424 $372 $455 forward $288 0 $-1 #
vertex $-1 -1 $-1 $455 1 $456 #
straight-curve $-1 -1 $-1 2.50000000000000222 2 -18.75 0 0 10 I I #
edge $-1 -1 $-1 $262 -0.6931599075767487239 $276 3.834752561166552276 $366 $457 forward @7 unknown #
point $-1 -1 $-1 2.50000000000000222 2 -39.57665596572951472 #
coedge $-1 -1 $-1 $407 $264 $367 $455 reversed $373 0 $-1 #
loop $-1 -1 $-1 $-1 $372 $298 #
straight-curve $-1 -1 $-1 2.50000000000000222 0 -40.42276586281546713 0 10 0 I I #
point $-1 -1 $-1 2.500000000000004441 21.10000000000000142 -40.42276586281546713 #
vertex $-1 -1 $-1 $275 1 $458 #
straight-curve $-1 -1 $-1 -2.499999999999997335 0 -40.42276586281546713 0 10 0 I I #
point $-1 -1 $-1 -2.499999999999995559 21.10000000000000142 -40.42276586281546713 #
straight-curve $-1 -1 $-1 -2.499999999999999112 2 -20.21138293140773357 7.930213554796979039e-16 0 -10 I I #
point $-1 -1 $-1 -2.499999999999997335 2 -39.57665596572954314 #
DXID-attrib $-1 -1 $-1 $-1 $279 @10 ASM ENTITY @2 32 #
cone-surface $-1 -1 $-1 0 0 0 0 1 0 40.5 0 0 1 I I 0 -1 40.5 forward I I I I #
coedge $-1 -1 $-1 $383 $383 $281 $384 reversed $449 0 $-1 #
edge $-1 -1 $-1 $459 -3.141592653589793116 $459 3.141592653589793116 $383 $460 forward @7 unknown #
ellipse-curve $-1 -1 $-1 0 21.10000000000000142 0 0 -1 0 40.5 0 0 1 I I #
ellipse-curve $-1 -1 $-1 0 21.10000000000000142 0 0 -1 0 40.5 0 0 1 I I #
edge $-1 -1 $-1 $376 1.632563990819720923 $289 3.079824989564968973 $287 $461 forward @7 unknown #
loop $-1 -1 $-1 $-1 $462 $202 #
point $-1 -1 $-1 -40.42276586281546713 2 -2.500000000000004885 #
ellipse-curve $-1 -1 $-1 -37.5 2 -4.592425496802575156e-15 -0 -1 -0 3.250000000000001776 0 0 1 I I #
DXID-attrib $-1 -1 $-1 $-1 $298 @10 ASM ENTITY @2 25 #
cone-surface $-1 -1 $-1 0 0 0 0 1 0 40.5 0 0 1 I I 0 -1 40.5 forward I I I I #
edge $-1 -1 $-1 $302 -3.079824989564968973 $434 -1.632563990819721145 $305 $463 forward @7 unknown #
point $-1 -1 $-1 -40.42276586281546713 2 2.499999999999994671 #
DXID-attrib $-1 -1 $-1 $-1 $309 @10 ASM ENTITY @2 35 #
face $464 -1 $-1 $465 $466 $6 $-1 $467 reversed single #
loop $-1 -1 $-1 $468 $314 $309 #
cone-surface $-1 -1 $-1 37.5 0 0 0 1 0 1.499999999999999112 0 0 1 I I 0 -1 1.499999999999999112 forward I I I I #
loop $-1 -1 $-1 $-1 $469 $400 #
face $470 -1 $-1 $471 $311 $6 $-1 $472 forward single #
point $-1 -1 $-1 -36 19.39999999999999858 -4.718447854656915297e-15 #
vertex $-1 -1 $-1 $315 2 $473 #
ellipse-curve $-1 -1 $-1 37.5 19.39999999999999858 0 -0 -1 -0 1.499999999999999112 0 0 1 I I #
loop $-1 -1 $-1 $-1 $474 $405 #
face $475 -1 $-1 $-1 $316 $6 $-1 $476 forward single #
point $-1 -1 $-1 -41.5 21.10000000000000142 4.440892098500626162e-15 #
coedge $-1 -1 $-1 $320 $372 $331 $422 forward $373 0 $-1 #
vertex $-1 -1 $-1 $422 1 $477 #
ellipse-curve $-1 -1 $-1 0 21.10000000000000142 0 0 -1 0 40.5 0 0 1 I I #
coedge $-1 -1 $-1 $478 $445 $324 $411 forward $288 0 $-1 #
edge $-1 -1 $-1 $479 -2.167276586281547068 $413 -2.08266559657295236 $410 $480 forward @7 unknown #
coedge $-1 -1 $-1 $325 $334 $478 $481 reversed $338 0 $-1 #
vertex $-1 -1 $-1 $326 1 $482 #
straight-curve $-1 -1 $-1 39.57665596572952182 0 2.5 -0 -10 -0 I I #
coedge $-1 -1 $-1 $440 $431 $327 $416 reversed $441 0 $-1 #
edge $-1 -1 $-1 $479 0.2000000000000000111 $417 2.11000000000000032 $327 $483 forward @7 unknown #
vertex $-1 -1 $-1 $416 1 $484 #
straight-curve $-1 -1 $-1 37.5 21.10000000000000142 2.5 10 0 0 I I #
DXID-attrib $-1 -1 $-1 $-1 $329 @10 ASM ENTITY @2 27 #
face $485 -1 $-1 $252 $441 $6 $-1 $486 forward single #
plane-surface $-1 -1 $-1 37.5 0 2.5 0 0 1 10 0 0 forward_v I I I I #
edge $-1 -1 $-1 $487 0.2000000000000000111 $408 2.11000000000000032 $407 $488 forward @7 unknown #
straight-curve $-1 -1 $-1 37.5 21.10000000000000142 -2.5 -10 0 0 I I #
coedge $-1 -1 $-1 $367 $478 $333 $425 forward $288 0 $-1 #
edge $-1 -1 $-1 $426 1.936527303432178826 $487 2.021138293140773534 $424 $489 forward @7 unknown #
vertex $-1 -1 $-1 $425 0 $490 #
straight-curve $-1 -1 $-1 39.57665596572952182 0 -2.5 -0 -10 -0 I I #
DXID-attrib $-1 -1 $-1 $-1 $336 @10 ASM ENTITY @2 26 #
plane-surface $-1 -1 $-1 40.42276586281546713 0 -2.5 0 0 -1 -10 0 0 forward_v I I I I #
face $491 -1 $-1 $400 $338 $6 $-1 $492 forward single #
coedge $-1 -1 $-1 $415 $351 $339 $432 reversed $441 0 $-1 #
edge $-1 -1 $-1 $417 0.06176766402482437163 $353 1.509028662770072415 $431 $493 forward @7 unknown #
coedge $-1 -1 $-1 $355 $340 $342 $436 forward $288 0 $-1 #
vertex $-1 -1 $-1 $393 1 $494 #
straight-curve $-1 -1 $-1 -2.500000000000003553 2 18.74999999999999645 1.586042710959393836e-15 0 -10 I I #
edge $-1 -1 $-1 $343 2.448432746013037953 $357 6.976345214756340063 $433 $495 forward @7 unknown #
point $-1 -1 $-1 -2.500000000000007105 2 39.57665596572952182 #
straight-curve $-1 -1 $-1 -2.500000000000007105 0 40.42276586281546713 0 10 0 I I #
point $-1 -1 $-1 -2.500000000000008882 21.10000000000000142 40.42276586281546713 #
coedge $-1 -1 $-1 $351 $415 $445 $496 reversed $441 0 $-1 #
loop $-1 -1 $-1 $-1 $440 $420 #
vertex $-1 -1 $-1 $496 0 $497 #
straight-curve $-1 -1 $-1 2.49999999999999245 0 40.42276586281546713 0 10 0 I I #
point $-1 -1 $-1 2.499999999999991562 21.10000000000000142 40.42276586281546713 #
coedge $-1 -1 $-1 $410 $355 $440 $496 forward $288 0 $-1 #
straight-curve $-1 -1 $-1 2.499999999999997335 2 20.21138293140773357 -2.37906406643909381e-15 0 10 I I #
point $-1 -1 $-1 2.499999999999992006 2 39.57665596572952182 #
DXID-attrib $-1 -1 $-1 $-1 $360 @10 ASM ENTITY @2 30 #
loop $-1 -1 $-1 $498 $383 $360 #
cone-surface $-1 -1 $-1 -8.326672684688674053e-15 0 -37.50000000000000711 0 1 0 -3.330669073875467649e-16 0 -1.499999999999999112 1 I I 0 -1 1.499999999999999112 forward I I I I #
DXID-attrib $-1 -1 $-1 $-1 $362 @10 ASM ENTITY @2 11 #
cone-surface $-1 -1 $-1 -8.326672684688674053e-15 0 37.5 0 1 0 3.25 0 0 1 I I 0 1 3.25 forward I I I I #
coedge $-1 -1 $-1 $453 $453 $365 $454 reversed $499 0 $-1 #
edge $-1 -1 $-1 $500 -3.141592653589793116 $500 3.141592653589793116 $453 $501 forward @7 unknown #
edge $-1 -1 $-1 $487 0.06176766402482437163 $368 1.509028662770072193 $367 $502 forward @7 unknown #
point $-1 -1 $-1 2.50000000000000222 2 -40.42276586281546713 #
ellipse-curve $-1 -1 $-1 -8.326672684688674053e-15 2 -37.50000000000000711 -0 -1 -0 3.25 0 0 1 I I #
point $-1 -1 $-1 -2.499999999999997335 2 -40.42276586281546713 #
vertex $-1 -1 $-1 $384 2 $503 #
ellipse-curve $-1 -1 $-1 -8.326672684688674053e-15 19.39999999999999858 -37.50000000000000711 -0 -1 -0 -3.330669073875467649e-16 0 -1.499999999999999112 1 I I #
ellipse-curve $-1 -1 $-1 0 2 0 0 1 0 40.5 0 0 1 I I #
coedge $-1 -1 $-1 $462 $462 $504 $505 forward $388 0 $-1 #
ellipse-curve $-1 -1 $-1 0 2 0 0 1 0 40.5 0 0 1 I I #
DXID-attrib $-1 -1 $-1 $-1 $396 @10 ASM ENTITY @2 36 #
face $506 -1 $-1 $507 $508 $6 $-1 $509 forward single #
loop $-1 -1 $-1 $510 $511 $396 #
plane-surface $-1 -1 $-1 0 0 0 0 1 0 10 0 0 forward_v I I I I #
loop $-1 -1 $-1 $-1 $512 $309 #
coedge $-1 -1 $-1 $469 $469 $513 $514 reversed $399 0 $-1 #
DXID-attrib $-1 -1 $-1 $-1 $400 @10 ASM ENTITY @2 13 #
face $515 -1 $-1 $516 $517 $6 $-1 $518 reversed single #
cone-surface $-1 -1 $-1 -37.5 15 -4.592425496802575156e-15 0 -1 0 -1.499999999999999112 0 -1.836970198721033139e-16 1 I I 0 -1 1.499999999999999112 forward I I I I #
point $-1 -1 $-1 36 19.39999999999999858 1.836970198721028701e-16 #
coedge $519 -1 $-1 $474 $474 $520 $521 forward $404 0 $-1 #
rgb_color-st-attrib $-1 -1 $522 $-1 $405 0.09803921568627450844 0.09803921568627450844 0.09803921568627450844 1 #
cone-surface $-1 -1 $-1 0 0 0 0 1 0 41.49999999999999289 0 0 1 I I 0 1 41.49999999999999289 forward I I I I #
point $-1 -1 $-1 40.42276586281546713 21.10000000000000142 -2.5 #
coedge $-1 -1 $-1 $424 $410 $412 $481 forward $288 0 $-1 #
vertex $-1 -1 $-1 $496 1 $523 #
straight-curve $-1 -1 $-1 18.75 2 2.5 -10 0 0 I I #
edge $-1 -1 $-1 $413 0.8776364192181416168 $426 5.405548887961444393 $478 $524 forward @7 unknown #
point $-1 -1 $-1 39.57665596572952182 2 2.5 #
straight-curve $-1 -1 $-1 40.42276586281546713 0 2.5 0 10 0 I I #
point $-1 -1 $-1 40.42276586281546713 21.10000000000000142 2.5 #
DXID-attrib $-1 -1 $-1 $-1 $420 @10 ASM ENTITY @2 28 #
cone-surface $-1 -1 $-1 0 0 0 0 1 0 40.5 0 0 1 I I 0 -1 40.5 forward I I I I #
vertex $-1 -1 $-1 $425 1 $525 #
straight-curve $-1 -1 $-1 40.42276586281546713 0 -2.5 0 10 0 I I #
straight-curve $-1 -1 $-1 20.21138293140773357 2 -2.5 10 0 0 I I #
point $-1 -1 $-1 39.57665596572952182 2 -2.5 #
DXID-attrib $-1 -1 $-1 $-1 $430 @10 ASM ENTITY @2 12 #
cone-surface $-1 -1 $-1 37.5 0 0 0 1 0 3.250000000000001776 0 0 1 I I 0 1 3.250000000000001776 forward I I I I #
ellipse-curve $-1 -1 $-1 0 21.10000000000000142 0 0 -1 0 40.5 0 0 1 I I #
point $-1 -1 $-1 -2.500000000000007105 2 40.42276586281546713 #
ellipse-curve $-1 -1 $-1 -8.326672684688674053e-15 2 37.5 -0 -1 -0 3.25 0 0 1 I I #
edge $-1 -1 $-1 $442 -1.509028662770072415 $479 -0.06176766402482437163 $445 $526 forward @7 unknown #
point $-1 -1 $-1 2.49999999999999245 2 40.42276586281546713 #
loop $-1 -1 $-1 $-1 $527 $360 #
loop $-1 -1 $-1 $528 $453 $516 #
vertex $-1 -1 $-1 $454 2 $529 #
ellipse-curve $-1 -1 $-1 -8.326672684688674053e-15 19.39999999999999858 37.5 -0 -1 -0 -3.330669073875467649e-16 0 1.499999999999999112 1 I I #
ellipse-curve $-1 -1 $-1 0 2 0 0 1 0 40.5 0 0 1 I I #
point $-1 -1 $-1 -7.809908757429024369e-15 19.39999999999999858 -36.00000000000000711 #
coedge $-1 -1 $-1 $504 $504 $462 $505 reversed $530 0 $-1 #
edge $-1 -1 $-1 $531 -3.141592653589793116 $531 3.141592653589793116 $504 $532 forward @7 unknown #
DXID-attrib $-1 -1 $-1 $-1 $465 @10 ASM ENTITY @2 37 #
face $533 -1 $-1 $534 $530 $6 $-1 $535 forward single #
loop $-1 -1 $-1 $536 $537 $465 #
cone-surface $-1 -1 $-1 -37.5 0 -4.592425496802575156e-15 0 1 0 -2.5 0 -3.061616997868378704e-16 1 I I 0 -1 2.5 forward I I I I #
loop $-1 -1 $-1 $538 $539 $396 #
coedge $-1 -1 $-1 $511 $511 $540 $541 forward $466 0 $-1 #
coedge $-1 -1 $-1 $512 $512 $542 $543 forward $468 0 $-1 #
coedge $-1 -1 $-1 $513 $513 $469 $514 forward $517 0 $-1 #
edge $-1 -1 $-1 $544 -3.141592653589793116 $544 3.141592653589793116 $469 $545 forward @7 unknown #
DXID-attrib $-1 -1 $-1 $-1 $471 @10 ASM ENTITY @2 14 #
face $546 -1 $-1 $547 $499 $6 $-1 $548 forward single #
loop $-1 -1 $-1 $549 $513 $471 #
plane-surface $-1 -1 $-1 -18.75000000000000355 10 18.74999999999999645 0 1 0 0 0 10 forward_v I I I I #
ATTRIB_CUSTOM-attrib $-1 -1 $-1 $-1 $474 @17 sketch_attrib_def 1 1 3 @14 1856 0 0 0 1 1 #
coedge $550 -1 $-1 $520 $520 $474 $521 reversed $551 0 $-1 #
edge $-1 -1 $-1 $552 -3.141592653589793116 $552 3.141592653589793116 $474 $553 forward @7 unknown #
DXID-attrib $-1 -1 $554 $475 $405 @10 ASM ENTITY @2 40 #
point $-1 -1 $-1 40.42276586281546713 2 2.5 #
ellipse-curve $-1 -1 $-1 37.5 2 0 -0 -1 -0 3.250000000000001776 0 0 1 I I #
point $-1 -1 $-1 40.42276586281546713 2 -2.5 #
ellipse-curve $-1 -1 $-1 0 2 0 0 1 0 40.5 0 0 1 I I #
coedge $-1 -1 $-1 $527 $527 $555 $556 forward $498 0 $-1 #
loop $-1 -1 $-1 $-1 $557 $516 #
point $-1 -1 $-1 -8.177302797173229813e-15 19.39999999999999858 36 #
loop $-1 -1 $-1 $558 $504 $507 #
vertex $-1 -1 $-1 $505 0 $559 #
ellipse-curve $-1 -1 $-1 0 2 0 0 -1 0 4 0 0 1 I I #
DXID-attrib $-1 -1 $-1 $-1 $507 @10 ASM ENTITY @2 38 #
face $560 -1 $-1 $405 $561 $6 $-1 $562 forward single #
cone-surface $-1 -1 $-1 0 0 0 0 1 0 4 0 0 1 I I 0 -1 4 forward I I I I #
loop $-1 -1 $-1 $-1 $563 $465 #
coedge $-1 -1 $-1 $537 $537 $564 $565 forward $508 0 $-1 #
loop $-1 -1 $-1 $566 $567 $396 #
coedge $-1 -1 $-1 $539 $539 $568 $569 forward $510 0 $-1 #
coedge $570 -1 $-1 $540 $540 $511 $541 reversed $571 0 $-1 #
edge $-1 -1 $-1 $572 -3.141592653589793116 $572 3.141592653589793116 $511 $573 forward @7 unknown #
coedge $-1 -1 $-1 $542 $542 $512 $543 reversed $574 0 $-1 #
edge $-1 -1 $-1 $575 -3.141592653589793116 $575 3.141592653589793116 $512 $576 forward @7 unknown #
vertex $-1 -1 $-1 $514 0 $577 #
ellipse-curve $-1 -1 $-1 -37.5 10 -4.592425496802575156e-15 0 1 0 -1.499999999999999112 0 -1.836970198721033139e-16 1 I I #
DXID-attrib $-1 -1 $-1 $-1 $516 @10 ASM ENTITY @2 15 #
face $578 -1 $-1 $579 $580 $6 $-1 $581 reversed single #
cone-surface $-1 -1 $-1 -8.326672684688674053e-15 15 37.5 0 -1 0 -3.330669073875467649e-16 0 1.499999999999999112 1 I I 0 -1 1.499999999999999112 forward I I I I #
loop $-1 -1 $-1 $-1 $564 $471 #
ATTRIB_CUSTOM-attrib $-1 -1 $-1 $-1 $520 @17 sketch_attrib_def 1 1 3 @14 1856 0 0 0 1 1 #
loop $-1 -1 $-1 $582 $520 $396 #
vertex $-1 -1 $-1 $521 0 $583 #
ellipse-curve $-1 -1 $-1 0 0 0 0 1 0 41.49999999999999289 0 0 1 I I #
ATTRIB_CUSTOM-attrib $-1 -1 $-1 $522 $405 @27 NEUTRON_Material_attrib_def 1 @36 d341af76-3085-414d-8c47-f51650b87b01 #
coedge $-1 -1 $-1 $555 $555 $527 $556 reversed $584 0 $-1 #
edge $-1 -1 $-1 $585 -3.141592653589793116 $585 3.141592653589793116 $527 $586 forward @7 unknown #
coedge $-1 -1 $-1 $557 $557 $587 $588 reversed $528 0 $-1 #
loop $-1 -1 $-1 $-1 $589 $507 #
point $-1 -1 $-1 -4 2 0 #
DXID-attrib $-1 -1 $-1 $-1 $534 @10 ASM ENTITY @2 39 #
loop $-1 -1 $-1 $590 $591 $534 #
cone-surface $-1 -1 $-1 -8.326672684688674053e-15 0 37.5 0 1 0 -5.551115123125782702e-16 0 2.5 1 I I 0 -1 2.5 forward I I I I #
coedge $592 -1 $-1 $563 $563 $593 $594 forward $536 0 $-1 #
coedge $-1 -1 $-1 $564 $564 $537 $565 reversed $549 0 $-1 #
edge $-1 -1 $-1 $595 -3.141592653589793116 $595 3.141592653589793116 $537 $596 forward @7 unknown #
loop $-1 -1 $-1 $551 $593 $396 #
coedge $597 -1 $-1 $567 $567 $598 $599 reversed $538 0 $-1 #
coedge $600 -1 $-1 $568 $568 $539 $569 reversed $601 0 $-1 #
edge $-1 -1 $-1 $602 -3.141592653589793116 $602 3.141592653589793116 $539 $603 forward @7 unknown #
ATTRIB_CUSTOM-attrib $-1 -1 $-1 $-1 $540 @17 sketch_attrib_def 1 1 3 @14 1868 0 0 0 1 1 #
loop $-1 -1 $-1 $-1 $540 $579 #
vertex $-1 -1 $-1 $541 0 $604 #
ellipse-curve $-1 -1 $-1 37.5 0 0 0 1 0 2.5 0 0 1 I I #
loop $-1 -1 $-1 $605 $542 $606 #
vertex $-1 -1 $-1 $543 0 $607 #
ellipse-curve $-1 -1 $-1 37.5 10 0 -0 -1 -0 1.499999999999999112 0 0 1 I I #
point $-1 -1 $-1 -36 10 -4.592425496802575156e-15 #
DXID-attrib $-1 -1 $-1 $-1 $547 @10 ASM ENTITY @2 16 #
face $608 -1 $-1 $606 $609 $6 $-1 $610 reversed single #
loop $-1 -1 $-1 $611 $587 $547 #
plane-surface $-1 -1 $-1 -18.75000000000000355 10 18.74999999999999645 0 1 0 0 0 10 forward_v I I I I #
loop $-1 -1 $-1 $-1 $612 $396 #
point $-1 -1 $-1 -41.49999999999999289 0 5.082284216461514959e-15 #
loop $-1 -1 $-1 $613 $555 $614 #
vertex $-1 -1 $-1 $556 0 $615 #
ellipse-curve $-1 -1 $-1 -8.326672684688674053e-15 10 -37.50000000000000711 -0 -1 -0 -3.330669073875467649e-16 0 -1.499999999999999112 1 I I #
coedge $-1 -1 $-1 $587 $587 $557 $588 forward $580 0 $-1 #
edge $-1 -1 $-1 $616 -3.141592653589793116 $616 3.141592653589793116 $557 $617 forward @7 unknown #
coedge $618 -1 $-1 $589 $589 $612 $619 forward $558 0 $-1 #
loop $-1 -1 $-1 $-1 $598 $534 #
coedge $-1 -1 $-1 $591 $591 $620 $621 forward $561 0 $-1 #
ATTRIB_CUSTOM-attrib $-1 -1 $-1 $-1 $563 @17 sketch_attrib_def 1 1 3 @23 1886 0 4294967295 0 1 1 #
coedge $622 -1 $-1 $593 $593 $563 $594 reversed $566 0 $-1 #
edge $-1 -1 $-1 $623 -3.141592653589793116 $623 3.141592653589793116 $563 $624 forward @7 unknown #
vertex $-1 -1 $-1 $565 0 $625 #
ellipse-curve $-1 -1 $-1 -37.5 10 -4.592425496802575156e-15 0 1 0 -2.5 0 -3.061616997868378704e-16 1 I I #
ATTRIB_CUSTOM-attrib $-1 -1 $-1 $-1 $567 @17 sketch_attrib_def 1 1 3 @23 1896 0 4294967295 0 1 1 #
coedge $626 -1 $-1 $598 $598 $567 $599 forward $590 0 $-1 #
edge $-1 -1 $-1 $627 -9.424777960769379348 $627 -3.141592653589793116 $598 $628 forward @7 unknown #
ATTRIB_CUSTOM-attrib $-1 -1 $-1 $-1 $568 @17 sketch_attrib_def 1 1 3 @14 1876 0 0 0 1 1 #
loop $-1 -1 $-1 $-1 $568 $629 #
vertex $-1 -1 $-1 $569 0 $630 #
ellipse-curve $-1 -1 $-1 -8.326672684688674053e-15 0 -37.50000000000000711 0 1 0 -5.551115123125782702e-16 0 -2.5 1 I I #
point $-1 -1 $-1 35 0 3.061616997868383141e-16 #
loop $-1 -1 $-1 $-1 $631 $606 #
face $632 -1 $-1 $629 $574 $6 $-1 $633 reversed single #
point $-1 -1 $-1 36 10 1.836970198721028701e-16 #
DXID-attrib $-1 -1 $-1 $-1 $579 @10 ASM ENTITY @2 17 #
loop $-1 -1 $-1 $571 $634 $579 #
cone-surface $-1 -1 $-1 37.5 0 0 0 1 0 2.5 0 0 1 I I 0 1 2.5 forward I I I I #
loop $-1 -1 $-1 $-1 $620 $547 #
coedge $635 -1 $-1 $612 $612 $589 $619 reversed $582 0 $-1 #
loop $-1 -1 $-1 $-1 $636 $614 #
face $637 -1 $-1 $177 $584 $6 $-1 $638 reversed single #
point $-1 -1 $-1 -7.809908757429024369e-15 10 -36.00000000000000711 #
vertex $-1 -1 $-1 $588 0 $639 #
ellipse-curve $-1 -1 $-1 -8.326672684688674053e-15 10 37.5 0 1 0 -3.330669073875467649e-16 0 1.499999999999999112 1 I I #
ATTRIB_CUSTOM-attrib $-1 -1 $-1 $-1 $589 @17 sketch_attrib_def 1 1 3 @23 1906 0 4294967295 0 1 1 #
edge $-1 -1 $-1 $640 -3.141592653589793116 $640 3.141592653589793116 $589 $641 forward @7 unknown #
coedge $-1 -1 $-1 $620 $620 $591 $621 reversed $611 0 $-1 #
edge $-1 -1 $-1 $642 -3.141592653589793116 $642 3.141592653589793116 $591 $643 forward @7 unknown #
ATTRIB_CUSTOM-attrib $-1 -1 $-1 $-1 $593 @17 sketch_attrib_def 1 1 3 @23 1886 0 4294967295 0 1 1 #
vertex $-1 -1 $-1 $594 0 $644 #
ellipse-curve $-1 -1 $-1 -37.5 0 -4.592425496802575156e-15 0 -1 0 -2.5 0 -3.061616997868378704e-16 1 I I #
point $-1 -1 $-1 -35 10 -3.980102097228898626e-15 #
ATTRIB_CUSTOM-attrib $-1 -1 $-1 $-1 $598 @17 sketch_attrib_def 1 1 3 @23 1896 0 4294967295 0 1 1 #
vertex $-1 -1 $-1 $599 0 $645 #
ellipse-curve $-1 -1 $-1 -8.326672684688674053e-15 0 37.5 0 -1 0 -5.551115123125782702e-16 0 2.5 1 I I #
face $646 -1 $-1 $614 $647 $6 $-1 $648 reversed single #
point $-1 -1 $-1 -7.465399472589257913e-15 0 -35.00000000000000711 #
coedge $-1 -1 $-1 $631 $631 $634 $649 reversed $605 0 $-1 #
DXID-attrib $-1 -1 $-1 $-1 $606 @10 ASM ENTITY @2 18 #
plane-surface $-1 -1 $-1 37.5 10 0 0 1 0 10 0 0 forward_v I I I I #
coedge $-1 -1 $-1 $634 $634 $631 $649 forward $609 0 $-1 #
ATTRIB_CUSTOM-attrib $-1 -1 $-1 $-1 $612 @17 sketch_attrib_def 1 1 3 @23 1906 0 4294967295 0 1 1 #
coedge $-1 -1 $-1 $636 $636 $650 $651 reversed $613 0 $-1 #
DXID-attrib $-1 -1 $-1 $-1 $614 @10 ASM ENTITY @2 20 #
plane-surface $-1 -1 $-1 -8.326672684688674053e-15 10 -37.50000000000000711 0 1 0 10 0 0 forward_v I I I I #
point $-1 -1 $-1 -8.177302797173229813e-15 10 36 #
vertex $-1 -1 $-1 $619 0 $652 #
ellipse-curve $-1 -1 $-1 0 0 0 0 -1 0 4 0 0 1 I I #
vertex $-1 -1 $-1 $621 0 $653 #
ellipse-curve $-1 -1 $-1 -8.326672684688674053e-15 10 37.5 0 1 0 -5.551115123125782702e-16 0 2.5 1 I I #
point $-1 -1 $-1 -35 0 -4.592425496802575156e-15 #
point $-1 -1 $-1 -8.077722872162933653e-15 0 35 #
DXID-attrib $-1 -1 $-1 $-1 $629 @10 ASM ENTITY @2 19 #
loop $-1 -1 $-1 $601 $650 $629 #
cone-surface $-1 -1 $-1 -8.326672684688674053e-15 0 -37.50000000000000711 0 1 0 -5.551115123125782702e-16 0 -2.5 1 I I 0 1 2.5 forward I I I I #
edge $-1 -1 $-1 $654 -3.141592653589793116 $654 3.141592653589793116 $634 $655 forward @7 unknown #
coedge $-1 -1 $-1 $650 $650 $636 $651 forward $647 0 $-1 #
edge $-1 -1 $-1 $656 -3.141592653589793116 $656 3.141592653589793116 $650 $657 forward @7 unknown #
point $-1 -1 $-1 -4 0 4.898587196589412829e-16 #
point $-1 -1 $-1 -7.465399472589257913e-15 10 35 #
vertex $-1 -1 $-1 $649 0 $658 #
ellipse-curve $-1 -1 $-1 37.5 10 0 0 1 0 2.5 0 0 1 I I #
vertex $-1 -1 $-1 $651 0 $659 #
ellipse-curve $-1 -1 $-1 -8.326672684688674053e-15 10 -37.50000000000000711 0 1 0 -5.551115123125782702e-16 0 -2.5 1 I I #
point $-1 -1 $-1 35 10 3.061616997868383141e-16 #
point $-1 -1 $-1 -7.465399472589257913e-15 10 -35.00000000000000711 #
End-of-ASM-data 